<svg width="134" height="70" viewBox="0 0 134 70" fill="none" xmlns="http://www.w3.org/2000/svg">
<path d="M1.44245 26V22.94H12.3505C13.1905 22.94 13.9105 22.748 14.5105 22.364C15.1105 21.956 15.5785 21.44 15.9145 20.816C16.2505 20.192 16.4185 19.532 16.4185 18.836C16.4185 18.116 16.2505 17.456 15.9145 16.856C15.6025 16.232 15.1465 15.74 14.5465 15.38C13.9705 14.996 13.2625 14.804 12.4225 14.804H7.67045C6.25445 14.804 5.00645 14.516 3.92645 13.94C2.84645 13.34 1.99445 12.524 1.37045 11.492C0.770453 10.436 0.470453 9.248 0.470453 7.928C0.470453 6.584 0.758453 5.372 1.33445 4.292C1.93445 3.212 2.76245 2.36 3.81845 1.736C4.89845 1.112 6.13445 0.799998 7.52645 0.799998H18.2185V3.86H7.85045C7.05845 3.86 6.36245 4.052 5.76245 4.436C5.16245 4.796 4.70645 5.276 4.39445 5.876C4.08245 6.452 3.92645 7.076 3.92645 7.748C3.92645 8.396 4.07045 9.02 4.35845 9.62C4.67045 10.196 5.11445 10.664 5.69045 11.024C6.29045 11.384 6.97445 11.564 7.74245 11.564H12.6025C14.1145 11.564 15.4105 11.864 16.4905 12.464C17.5705 13.064 18.3985 13.88 18.9745 14.912C19.5505 15.944 19.8385 17.12 19.8385 18.44C19.8385 19.904 19.5385 21.212 18.9385 22.364C18.3625 23.492 17.5345 24.38 16.4545 25.028C15.3745 25.676 14.1385 26 12.7465 26H1.44245ZM24.0128 26V22.94H34.9208C35.7608 22.94 36.4808 22.748 37.0808 22.364C37.6808 21.956 38.1488 21.44 38.4848 20.816C38.8208 20.192 38.9888 19.532 38.9888 18.836C38.9888 18.116 38.8208 17.456 38.4848 16.856C38.1728 16.232 37.7168 15.74 37.1168 15.38C36.5408 14.996 35.8328 14.804 34.9928 14.804H30.2408C28.8248 14.804 27.5768 14.516 26.4968 13.94C25.4168 13.34 24.5648 12.524 23.9408 11.492C23.3408 10.436 23.0408 9.248 23.0408 7.928C23.0408 6.584 23.3288 5.372 23.9048 4.292C24.5048 3.212 25.3328 2.36 26.3888 1.736C27.4688 1.112 28.7048 0.799998 30.0968 0.799998H40.7888V3.86H30.4208C29.6288 3.86 28.9328 4.052 28.3328 4.436C27.7328 4.796 27.2768 5.276 26.9648 5.876C26.6528 6.452 26.4968 7.076 26.4968 7.748C26.4968 8.396 26.6408 9.02 26.9288 9.62C27.2408 10.196 27.6848 10.664 28.2608 11.024C28.8608 11.384 29.5448 11.564 30.3128 11.564H35.1728C36.6848 11.564 37.9808 11.864 39.0608 12.464C40.1408 13.064 40.9688 13.88 41.5448 14.912C42.1208 15.944 42.4088 17.12 42.4088 18.44C42.4088 19.904 42.1088 21.212 41.5088 22.364C40.9328 23.492 40.1048 24.38 39.0248 25.028C37.9448 25.676 36.7088 26 35.3168 26H24.0128ZM56.5911 26.432C54.6471 26.432 52.9191 26.024 51.4071 25.208C49.8951 24.392 48.7071 23.216 47.8431 21.68C47.0031 20.144 46.5831 18.332 46.5831 16.244V0.799998H50.0391V16.604C50.0391 17.828 50.3031 18.956 50.8311 19.988C51.3591 21.02 52.1151 21.848 53.0991 22.472C54.0831 23.072 55.2471 23.372 56.5911 23.372C57.9351 23.372 59.0991 23.072 60.0831 22.472C61.0671 21.848 61.8111 21.02 62.3151 19.988C62.8431 18.956 63.1071 17.828 63.1071 16.604V0.799998H66.5631V16.244C66.5631 18.332 66.1311 20.144 65.2671 21.68C64.4271 23.216 63.2511 24.392 61.7391 25.208C60.2511 26.024 58.5351 26.432 56.5911 26.432ZM88.8173 26.432C87.4733 26.432 86.2853 26.132 85.2533 25.532C84.2453 24.908 83.4533 24.068 82.8773 23.012C82.3013 21.956 82.0133 20.768 82.0133 19.448V6.884C82.0133 6.236 81.8573 5.648 81.5453 5.12C81.2333 4.592 80.8133 4.172 80.2853 3.86C79.7573 3.548 79.1813 3.392 78.5573 3.392C77.9333 3.392 77.3573 3.548 76.8293 3.86C76.3253 4.172 75.9173 4.592 75.6053 5.12C75.3173 5.648 75.1733 6.236 75.1733 6.884V26H71.7173V7.352C71.7173 6.032 72.0053 4.844 72.5813 3.788C73.1573 2.732 73.9613 1.904 74.9933 1.304C76.0253 0.679999 77.2133 0.368 78.5573 0.368C79.9253 0.368 81.1253 0.679999 82.1573 1.304C83.1893 1.904 83.9933 2.732 84.5693 3.788C85.1453 4.844 85.4333 6.032 85.4333 7.352V19.916C85.4333 20.564 85.5893 21.152 85.9013 21.68C86.2133 22.208 86.6213 22.628 87.1253 22.94C87.6533 23.252 88.2173 23.408 88.8173 23.408C89.4173 23.408 89.9693 23.252 90.4733 22.94C90.9773 22.628 91.3733 22.208 91.6613 21.68C91.9733 21.152 92.1293 20.564 92.1293 19.916V0.799998H95.5853V19.448C95.5853 20.768 95.2973 21.956 94.7213 23.012C94.1453 24.068 93.3533 24.908 92.3453 25.532C91.3373 26.132 90.1613 26.432 88.8173 26.432ZM119.444 33.92C118.244 33.92 117.176 33.68 116.24 33.2C115.328 32.744 114.608 32.06 114.08 31.148C113.552 30.236 113.288 29.144 113.288 27.872C113.288 27.56 113.3 27.236 113.324 26.9C113.348 26.588 113.384 26.264 113.432 25.928C111.464 26.048 109.64 25.82 107.96 25.244C106.28 24.668 104.816 23.816 103.568 22.688C102.32 21.536 101.348 20.156 100.652 18.548C99.9557 16.916 99.6077 15.128 99.6077 13.184C99.6077 11.408 99.9077 9.752 100.508 8.216C101.108 6.656 101.972 5.288 103.1 4.112C104.228 2.936 105.584 2.024 107.168 1.376C108.776 0.704 110.552 0.368 112.496 0.368C114.44 0.368 116.204 0.691999 117.788 1.34C119.372 1.988 120.728 2.9 121.856 4.076C122.984 5.228 123.848 6.56 124.448 8.072C125.072 9.584 125.384 11.216 125.384 12.968V27.476C125.384 28.772 125.144 29.9 124.664 30.86C124.184 31.844 123.5 32.6 122.612 33.128C121.748 33.656 120.692 33.92 119.444 33.92ZM119.228 30.824C120.02 30.824 120.668 30.536 121.172 29.96C121.676 29.408 121.928 28.604 121.928 27.548V18.98C120.704 19.772 119.732 20.576 119.012 21.392C118.292 22.208 117.752 23 117.392 23.768C117.056 24.536 116.828 25.244 116.708 25.892C116.612 26.54 116.564 27.08 116.564 27.512C116.564 28.208 116.684 28.796 116.924 29.276C117.188 29.78 117.524 30.164 117.932 30.428C118.34 30.692 118.772 30.824 119.228 30.824ZM112.496 22.976C112.88 22.976 113.24 22.964 113.576 22.94C113.912 22.892 114.272 22.82 114.656 22.724C114.992 21.908 115.46 21.08 116.06 20.24C116.684 19.4 117.464 18.572 118.4 17.756C119.36 16.916 120.536 16.136 121.928 15.416V12.968C121.928 11.6 121.688 10.34 121.208 9.188C120.752 8.012 120.092 7.004 119.228 6.164C118.388 5.3 117.392 4.628 116.24 4.148C115.088 3.644 113.84 3.392 112.496 3.392C111.128 3.392 109.868 3.644 108.716 4.148C107.588 4.628 106.592 5.312 105.728 6.2C104.888 7.088 104.228 8.132 103.748 9.332C103.292 10.508 103.064 11.792 103.064 13.184C103.064 14.576 103.292 15.872 103.748 17.072C104.228 18.248 104.888 19.28 105.728 20.168C106.592 21.056 107.588 21.752 108.716 22.256C109.868 22.736 111.128 22.976 112.496 22.976ZM131.441 12.032C130.793 12.032 130.229 11.804 129.749 11.348C129.293 10.868 129.065 10.304 129.065 9.656C129.065 9.008 129.293 8.456 129.749 8C130.229 7.52 130.793 7.28 131.441 7.28C132.089 7.28 132.641 7.52 133.097 8C133.577 8.456 133.817 9.008 133.817 9.656C133.817 10.304 133.577 10.868 133.097 11.348C132.641 11.804 132.089 12.032 131.441 12.032ZM129.065 31.4L130.685 26.216C130.157 26.048 129.749 25.748 129.461 25.316C129.197 24.86 129.065 24.404 129.065 23.948C129.065 23.276 129.293 22.724 129.749 22.292C130.229 21.836 130.793 21.608 131.441 21.608C132.161 21.608 132.737 21.848 133.169 22.328C133.601 22.808 133.817 23.384 133.817 24.056C133.817 24.512 133.781 24.944 133.709 25.352C133.637 25.736 133.505 26.18 133.313 26.684L131.873 31.4H129.065ZM0.671547 62V36.8H8.73555C11.4235 36.8 13.7395 37.34 15.6835 38.42C17.6515 39.5 19.1755 40.988 20.2555 42.884C21.3355 44.78 21.8755 46.952 21.8755 49.4C21.8755 51.848 21.3355 54.02 20.2555 55.916C19.1755 57.812 17.6515 59.3 15.6835 60.38C13.7395 61.46 11.4235 62 8.73555 62H0.671547ZM4.12755 58.94H8.77155C10.6435 58.94 12.2995 58.556 13.7395 57.788C15.2035 57.02 16.3555 55.928 17.1955 54.512C18.0355 53.072 18.4555 51.368 18.4555 49.4C18.4555 47.408 18.0355 45.704 17.1955 44.288C16.3555 42.872 15.2035 41.78 13.7395 41.012C12.2995 40.244 10.6435 39.86 8.77155 39.86H4.12755V58.94ZM35.3407 62C33.3247 62 31.5367 61.628 29.9767 60.884C28.4167 60.116 27.1927 59.048 26.3047 57.68C25.4407 56.288 25.0087 54.668 25.0087 52.82C25.0087 50.996 25.3807 49.364 26.1247 47.924C26.8687 46.46 27.9007 45.308 29.2207 44.468C30.5407 43.628 32.0767 43.208 33.8287 43.208C35.7247 43.208 37.2967 43.616 38.5447 44.432C39.8167 45.248 40.7647 46.352 41.3887 47.744C42.0127 49.112 42.3247 50.648 42.3247 52.352C42.3247 52.616 42.3127 52.892 42.2887 53.18C42.2887 53.468 42.2647 53.72 42.2167 53.936H28.5367C28.6567 55.064 29.0287 56.024 29.6527 56.816C30.2767 57.584 31.0687 58.172 32.0287 58.58C33.0127 58.964 34.0927 59.156 35.2687 59.156H40.0567V62H35.3407ZM28.5007 51.596H38.9767C38.9767 51.14 38.9287 50.66 38.8327 50.156C38.7367 49.628 38.5687 49.124 38.3287 48.644C38.0887 48.14 37.7647 47.696 37.3567 47.312C36.9727 46.904 36.4807 46.58 35.8807 46.34C35.3047 46.1 34.6207 45.98 33.8287 45.98C32.9887 45.98 32.2447 46.148 31.5967 46.484C30.9727 46.796 30.4327 47.228 29.9767 47.78C29.5207 48.308 29.1727 48.908 28.9327 49.58C28.6927 50.252 28.5487 50.924 28.5007 51.596ZM46.5479 62V35.72H49.8599V62H46.5479ZM55.126 62V43.64H58.474V62H55.126ZM56.818 40.724C56.218 40.724 55.69 40.508 55.234 40.076C54.802 39.62 54.586 39.092 54.586 38.492C54.586 37.892 54.802 37.376 55.234 36.944C55.69 36.488 56.218 36.26 56.818 36.26C57.418 36.26 57.934 36.488 58.366 36.944C58.822 37.376 59.05 37.892 59.05 38.492C59.05 39.092 58.822 39.62 58.366 40.076C57.934 40.508 57.418 40.724 56.818 40.724ZM71.4442 62.432C70.6282 62.432 69.8842 62.204 69.2122 61.748C68.5642 61.268 68.0842 60.596 67.7722 59.732L61.7962 43.64H65.4322L70.7602 58.508C70.8562 58.748 70.9642 58.916 71.0842 59.012C71.2042 59.108 71.3362 59.156 71.4802 59.156C71.6482 59.156 71.7802 59.108 71.8762 59.012C71.9962 58.916 72.1042 58.748 72.2002 58.508L77.5642 43.64H81.1282L75.1522 59.732C74.8162 60.596 74.3242 61.268 73.6762 61.748C73.0282 62.204 72.2842 62.432 71.4442 62.432ZM93.1024 62C91.0864 62 89.2984 61.628 87.7384 60.884C86.1784 60.116 84.9544 59.048 84.0664 57.68C83.2024 56.288 82.7704 54.668 82.7704 52.82C82.7704 50.996 83.1424 49.364 83.8864 47.924C84.6304 46.46 85.6624 45.308 86.9824 44.468C88.3024 43.628 89.8384 43.208 91.5904 43.208C93.4864 43.208 95.0584 43.616 96.3064 44.432C97.5784 45.248 98.5264 46.352 99.1504 47.744C99.7744 49.112 100.086 50.648 100.086 52.352C100.086 52.616 100.074 52.892 100.05 53.18C100.05 53.468 100.026 53.72 99.9784 53.936H86.2984C86.4184 55.064 86.7904 56.024 87.4144 56.816C88.0384 57.584 88.8304 58.172 89.7904 58.58C90.7744 58.964 91.8544 59.156 93.0304 59.156H97.8184V62H93.1024ZM86.2624 51.596H96.7384C96.7384 51.14 96.6904 50.66 96.5944 50.156C96.4984 49.628 96.3304 49.124 96.0904 48.644C95.8504 48.14 95.5264 47.696 95.1184 47.312C94.7344 46.904 94.2424 46.58 93.6424 46.34C93.0664 46.1 92.3824 45.98 91.5904 45.98C90.7504 45.98 90.0064 46.148 89.3584 46.484C88.7344 46.796 88.1944 47.228 87.7384 47.78C87.2824 48.308 86.9344 48.908 86.6944 49.58C86.4544 50.252 86.3104 50.924 86.2624 51.596ZM104.202 62V48.86C104.202 47.228 104.658 45.956 105.57 45.044C106.506 44.108 107.79 43.64 109.422 43.64H113.202V46.484H110.034C109.242 46.484 108.618 46.712 108.162 47.168C107.73 47.624 107.514 48.26 107.514 49.076V62H104.202ZM123.211 69.308V62.288C121.867 62.096 120.667 61.652 119.611 60.956C118.579 60.236 117.763 59.312 117.163 58.184C116.563 57.032 116.263 55.724 116.263 54.26V43.64H119.611V54.224C119.611 55.328 119.851 56.288 120.331 57.104C120.811 57.896 121.447 58.508 122.239 58.94C123.055 59.372 123.919 59.588 124.831 59.588C125.767 59.588 126.631 59.372 127.423 58.94C128.239 58.508 128.887 57.896 129.367 57.104C129.871 56.288 130.123 55.328 130.123 54.224V43.64H133.435V54.26C133.435 55.724 133.135 57.02 132.535 58.148C131.959 59.276 131.143 60.2 130.087 60.92C129.055 61.616 127.867 62.072 126.523 62.288V69.308H123.211Z" fill="#07D39F"/>
<path d="M1.44245 26H0.942451V26.5H1.44245V26ZM1.44245 22.94V22.44H0.942451V22.94H1.44245ZM14.5105 22.364L14.7801 22.7853L14.7916 22.7775L14.5105 22.364ZM15.9145 20.816L15.4742 20.5789L15.9145 20.816ZM15.9145 16.856L15.4672 17.0796L15.4725 17.0901L15.4782 17.1003L15.9145 16.856ZM14.5465 15.38L14.2691 15.796L14.279 15.8026L14.2892 15.8087L14.5465 15.38ZM3.92645 13.94L3.6836 14.3771L3.69116 14.3812L3.92645 13.94ZM1.37045 11.492L0.935566 11.7391L0.942589 11.7507L1.37045 11.492ZM1.33445 4.292L0.897312 4.04914L0.893276 4.0567L1.33445 4.292ZM3.81845 1.736L3.5683 1.30305L3.56409 1.30554L3.81845 1.736ZM18.2185 0.799998H18.7185V0.299998H18.2185V0.799998ZM18.2185 3.86V4.36H18.7185V3.86H18.2185ZM5.76245 4.436L6.0197 4.86475L6.02589 4.86103L6.03198 4.85713L5.76245 4.436ZM4.39445 5.876L4.83416 6.11418L4.83806 6.10668L4.39445 5.876ZM4.35845 9.62L3.90769 9.83636L3.91298 9.84739L3.91881 9.85814L4.35845 9.62ZM5.69045 11.024L5.42541 11.4481L5.4332 11.4527L5.69045 11.024ZM16.4905 12.464L16.7333 12.0269L16.4905 12.464ZM18.9745 14.912L18.5379 15.1557L18.9745 14.912ZM18.9385 22.364L18.495 22.133L18.4931 22.1366L18.9385 22.364ZM16.4545 25.028L16.1972 24.5993L16.4545 25.028ZM1.94245 26V22.94H0.942451V26H1.94245ZM1.44245 23.44H12.3505V22.44H1.44245V23.44ZM12.3505 23.44C13.2686 23.44 14.086 23.2293 14.78 22.7851L14.2409 21.9429C13.7349 22.2667 13.1123 22.44 12.3505 22.44V23.44ZM14.7916 22.7775C15.4564 22.3254 15.9797 21.7495 16.3547 21.0531L15.4742 20.5789C15.1772 21.1305 14.7645 21.5866 14.2293 21.9505L14.7916 22.7775ZM16.3547 21.0531C16.7292 20.3576 16.9185 19.6163 16.9185 18.836H15.9185C15.9185 19.4477 15.7717 20.0264 15.4742 20.5789L16.3547 21.0531ZM16.9185 18.836C16.9185 18.0346 16.7305 17.2899 16.3507 16.6117L15.4782 17.1003C15.7704 17.6221 15.9185 18.1974 15.9185 18.836H16.9185ZM16.3617 16.6324C16.007 15.9231 15.485 15.36 14.8037 14.9513L14.2892 15.8087C14.8079 16.12 15.1979 16.5409 15.4672 17.0796L16.3617 16.6324ZM14.8238 14.964C14.1496 14.5145 13.3399 14.304 12.4225 14.304V15.304C13.185 15.304 13.7913 15.4775 14.2691 15.796L14.8238 14.964ZM12.4225 14.304H7.67045V15.304H12.4225V14.304ZM7.67045 14.304C6.32358 14.304 5.15871 14.0305 4.16175 13.4988L3.69116 14.3812C4.85419 15.0015 6.18533 15.304 7.67045 15.304V14.304ZM4.16927 13.5029C3.16349 12.9442 2.37609 12.1888 1.79832 11.2333L0.942589 11.7507C1.61281 12.8592 2.52941 13.7358 3.68363 14.3771L4.16927 13.5029ZM1.80518 11.245C1.25163 10.2707 0.970451 9.16914 0.970451 7.928H-0.0295486C-0.0295486 9.32686 0.289276 10.6013 0.935726 11.739L1.80518 11.245ZM0.970451 7.928C0.970451 6.65785 1.24194 5.52796 1.77563 4.52729L0.893276 4.0567C0.274967 5.21604 -0.0295486 6.51014 -0.0295486 7.928H0.970451ZM1.77153 4.53482C2.32871 3.5319 3.09389 2.74492 4.07282 2.16646L3.56409 1.30554C2.43101 1.97508 1.5402 2.8921 0.897373 4.04918L1.77153 4.53482ZM4.06859 2.16893C5.06401 1.5938 6.21185 1.3 7.52645 1.3V0.299998C6.05705 0.299998 4.7329 0.630195 3.56831 1.30307L4.06859 2.16893ZM7.52645 1.3H18.2185V0.299998H7.52645V1.3ZM17.7185 0.799998V3.86H18.7185V0.799998H17.7185ZM18.2185 3.36H7.85045V4.36H18.2185V3.36ZM7.85045 3.36C6.97396 3.36 6.18221 3.57372 5.49293 4.01486L6.03198 4.85713C6.54269 4.53028 7.14294 4.36 7.85045 4.36V3.36ZM5.50521 4.00725C4.82886 4.41306 4.307 4.96041 3.95084 5.64532L4.83806 6.10668C5.10591 5.59158 5.49604 5.17894 6.0197 4.86475L5.50521 4.00725ZM3.95481 5.63786C3.60215 6.28893 3.42645 6.99507 3.42645 7.748H4.42645C4.42645 7.15693 4.56276 6.61507 4.8341 6.11414L3.95481 5.63786ZM3.42645 7.748C3.42645 8.47296 3.58818 9.17073 3.90769 9.83636L4.80922 9.40363C4.55272 8.86927 4.42645 8.31904 4.42645 7.748H3.42645ZM3.91881 9.85814C4.27353 10.513 4.77897 11.0439 5.42545 11.448L5.95545 10.6C5.44994 10.2841 5.06738 9.87898 4.7981 9.38186L3.91881 9.85814ZM5.4332 11.4527C6.11838 11.8638 6.89295 12.064 7.74245 12.064V11.064C7.05595 11.064 6.46253 10.9041 5.9477 10.5953L5.4332 11.4527ZM7.74245 12.064H12.6025V11.064H7.74245V12.064ZM12.6025 12.064C14.0483 12.064 15.2568 12.3506 16.2476 12.9011L16.7333 12.0269C15.5641 11.3774 14.1806 11.064 12.6025 11.064V12.064ZM16.2476 12.9011C17.2502 13.458 18.0093 14.2087 18.5379 15.1557L19.411 14.6683C18.7876 13.5513 17.8907 12.67 16.7333 12.0269L16.2476 12.9011ZM18.5379 15.1557C19.0676 16.1048 19.3385 17.1951 19.3385 18.44H20.3385C20.3385 17.0449 20.0333 15.7832 19.411 14.6683L18.5379 15.1557ZM19.3385 18.44C19.3385 19.8339 19.0534 21.061 18.495 22.133L19.3819 22.595C20.0236 21.363 20.3385 19.9741 20.3385 18.44H19.3385ZM18.4931 22.1366C17.9595 23.1817 17.1964 23.9997 16.1972 24.5993L16.7117 25.4567C17.8725 24.7603 18.7654 23.8023 19.3838 22.5914L18.4931 22.1366ZM16.1972 24.5993C15.2029 25.1958 14.0576 25.5 12.7465 25.5V26.5C14.2193 26.5 15.546 26.1562 16.7117 25.4567L16.1972 24.5993ZM12.7465 25.5H1.44245V26.5H12.7465V25.5ZM24.0128 26H23.5128V26.5H24.0128V26ZM24.0128 22.94V22.44H23.5128V22.94H24.0128ZM37.0808 22.364L37.3504 22.7853L37.3619 22.7775L37.0808 22.364ZM38.4848 20.816L38.0445 20.5789L38.4848 20.816ZM38.4848 16.856L38.0376 17.0796L38.0428 17.0901L38.0485 17.1003L38.4848 16.856ZM37.1168 15.38L36.8394 15.796L36.8493 15.8026L36.8595 15.8087L37.1168 15.38ZM26.4968 13.94L26.2539 14.3771L26.2615 14.3812L26.4968 13.94ZM23.9408 11.492L23.5059 11.7391L23.5129 11.7507L23.9408 11.492ZM23.9048 4.292L23.4676 4.04914L23.4636 4.0567L23.9048 4.292ZM26.3888 1.736L26.1386 1.30305L26.1344 1.30554L26.3888 1.736ZM40.7888 0.799998H41.2888V0.299998H40.7888V0.799998ZM40.7888 3.86V4.36H41.2888V3.86H40.7888ZM28.3328 4.436L28.59 4.86475L28.5962 4.86103L28.6023 4.85713L28.3328 4.436ZM26.9648 5.876L27.4045 6.11418L27.4084 6.10668L26.9648 5.876ZM26.9288 9.62L26.478 9.83636L26.4833 9.84739L26.4891 9.85814L26.9288 9.62ZM28.2608 11.024L27.9957 11.4481L28.0035 11.4527L28.2608 11.024ZM39.0608 12.464L39.3036 12.0269L39.0608 12.464ZM41.5448 14.912L41.1082 15.1557L41.5448 14.912ZM41.5088 22.364L41.0653 22.133L41.0635 22.1366L41.5088 22.364ZM39.0248 25.028L38.7675 24.5993L39.0248 25.028ZM24.5128 26V22.94H23.5128V26H24.5128ZM24.0128 23.44H34.9208V22.44H24.0128V23.44ZM34.9208 23.44C35.8389 23.44 36.6563 23.2293 37.3503 22.7851L36.8112 21.9429C36.3052 22.2667 35.6826 22.44 34.9208 22.44V23.44ZM37.3619 22.7775C38.0267 22.3254 38.55 21.7495 38.925 21.0531L38.0445 20.5789C37.7475 21.1305 37.3348 21.5866 36.7996 21.9505L37.3619 22.7775ZM38.925 21.0531C39.2995 20.3576 39.4888 19.6163 39.4888 18.836H38.4888C38.4888 19.4477 38.342 20.0264 38.0445 20.5789L38.925 21.0531ZM39.4888 18.836C39.4888 18.0346 39.3008 17.2899 38.921 16.6117L38.0485 17.1003C38.3407 17.6221 38.4888 18.1974 38.4888 18.836H39.4888ZM38.932 16.6324C38.5773 15.9231 38.0553 15.36 37.374 14.9513L36.8595 15.8087C37.3782 16.12 37.7682 16.5409 38.0376 17.0796L38.932 16.6324ZM37.3941 14.964C36.7199 14.5145 35.9102 14.304 34.9928 14.304V15.304C35.7554 15.304 36.3616 15.4775 36.8394 15.796L37.3941 14.964ZM34.9928 14.304H30.2408V15.304H34.9928V14.304ZM30.2408 14.304C28.8939 14.304 27.729 14.0305 26.7321 13.4988L26.2615 14.3812C27.4245 15.0015 28.7556 15.304 30.2408 15.304V14.304ZM26.7396 13.5029C25.7338 12.9442 24.9464 12.1888 24.3686 11.2333L23.5129 11.7507C24.1831 12.8592 25.0997 13.7358 26.2539 14.3771L26.7396 13.5029ZM24.3755 11.245C23.8219 10.2707 23.5408 9.16914 23.5408 7.928H22.5408C22.5408 9.32686 22.8596 10.6013 23.506 11.739L24.3755 11.245ZM23.5408 7.928C23.5408 6.65785 23.8123 5.52796 24.3459 4.52729L23.4636 4.0567C22.8453 5.21604 22.5408 6.51014 22.5408 7.928H23.5408ZM24.3418 4.53482C24.899 3.5319 25.6642 2.74492 26.6431 2.16646L26.1344 1.30554C25.0013 1.97508 24.1105 2.8921 23.4677 4.04918L24.3418 4.53482ZM26.6389 2.16893C27.6343 1.5938 28.7822 1.3 30.0968 1.3V0.299998C28.6274 0.299998 27.3032 0.630195 26.1386 1.30307L26.6389 2.16893ZM30.0968 1.3H40.7888V0.299998H30.0968V1.3ZM40.2888 0.799998V3.86H41.2888V0.799998H40.2888ZM40.7888 3.36H30.4208V4.36H40.7888V3.36ZM30.4208 3.36C29.5443 3.36 28.7525 3.57372 28.0632 4.01486L28.6023 4.85713C29.113 4.53028 29.7133 4.36 30.4208 4.36V3.36ZM28.0755 4.00725C27.3992 4.41306 26.8773 4.96041 26.5212 5.64532L27.4084 6.10668C27.6762 5.59158 28.0664 5.17894 28.59 4.86475L28.0755 4.00725ZM26.5251 5.63786C26.1725 6.28893 25.9968 6.99507 25.9968 7.748H26.9968C26.9968 7.15693 27.1331 6.61507 27.4044 6.11414L26.5251 5.63786ZM25.9968 7.748C25.9968 8.47296 26.1585 9.17073 26.478 9.83636L27.3795 9.40363C27.123 8.86927 26.9968 8.31904 26.9968 7.748H25.9968ZM26.4891 9.85814C26.8438 10.513 27.3493 11.0439 27.9958 11.448L28.5258 10.6C28.0202 10.2841 27.6377 9.87898 27.3684 9.38186L26.4891 9.85814ZM28.0035 11.4527C28.6887 11.8638 29.4633 12.064 30.3128 12.064V11.064C29.6263 11.064 29.0328 10.9041 28.518 10.5953L28.0035 11.4527ZM30.3128 12.064H35.1728V11.064H30.3128V12.064ZM35.1728 12.064C36.6187 12.064 37.8271 12.3506 38.8179 12.9011L39.3036 12.0269C38.1344 11.3774 36.7509 11.064 35.1728 11.064V12.064ZM38.8179 12.9011C39.8205 13.458 40.5796 14.2087 41.1082 15.1557L41.9814 14.6683C41.3579 13.5513 40.461 12.67 39.3036 12.0269L38.8179 12.9011ZM41.1082 15.1557C41.6379 16.1048 41.9088 17.1951 41.9088 18.44H42.9088C42.9088 17.0449 42.6036 15.7832 41.9814 14.6683L41.1082 15.1557ZM41.9088 18.44C41.9088 19.8339 41.6237 21.061 41.0653 22.133L41.9522 22.595C42.5939 21.363 42.9088 19.9741 42.9088 18.44H41.9088ZM41.0635 22.1366C40.5298 23.1817 39.7667 23.9997 38.7675 24.5993L39.282 25.4567C40.4428 24.7603 41.3357 23.8023 41.9541 22.5914L41.0635 22.1366ZM38.7675 24.5993C37.7732 25.1958 36.628 25.5 35.3168 25.5V26.5C36.7896 26.5 38.1163 26.1562 39.282 25.4567L38.7675 24.5993ZM35.3168 25.5H24.0128V26.5H35.3168V25.5ZM51.4071 25.208L51.6445 24.768L51.4071 25.208ZM47.8431 21.68L47.4044 21.9199L47.4073 21.9251L47.8431 21.68ZM46.5831 0.799998V0.299998H46.0831V0.799998H46.5831ZM50.0391 0.799998H50.5391V0.299998H50.0391V0.799998ZM50.8311 19.988L51.2762 19.7603L50.8311 19.988ZM53.0991 22.472L52.8313 22.8943L52.8388 22.8989L53.0991 22.472ZM60.0831 22.472L60.3434 22.899L60.3509 22.8943L60.0831 22.472ZM62.3151 19.988L61.8699 19.7602L61.8658 19.7686L62.3151 19.988ZM63.1071 0.799998V0.299998H62.6071V0.799998H63.1071ZM66.5631 0.799998H67.0631V0.299998H66.5631V0.799998ZM65.2671 21.68L64.8313 21.4349L64.8284 21.4401L65.2671 21.68ZM61.7391 25.208L61.5016 24.768L61.4987 24.7696L61.7391 25.208ZM56.5911 25.932C54.7189 25.932 53.0744 25.5397 51.6445 24.768L51.1696 25.648C52.7637 26.5083 54.5752 26.932 56.5911 26.932V25.932ZM51.6445 24.768C50.218 23.9981 49.0978 22.8907 48.2789 21.4349L47.4073 21.9251C48.3164 23.5413 49.5722 24.7859 51.1696 25.648L51.6445 24.768ZM48.2818 21.4401C47.4891 19.9906 47.0831 18.2643 47.0831 16.244H46.0831C46.0831 18.3997 46.5171 20.2974 47.4044 21.9199L48.2818 21.4401ZM47.0831 16.244V0.799998H46.0831V16.244H47.0831ZM46.5831 1.3H50.0391V0.299998H46.5831V1.3ZM49.5391 0.799998V16.604H50.5391V0.799998H49.5391ZM49.5391 16.604C49.5391 17.9026 49.8199 19.1093 50.386 20.2157L51.2762 19.7603C50.7863 18.8027 50.5391 17.7534 50.5391 16.604H49.5391ZM50.386 20.2157C50.9549 21.3277 51.7723 22.2227 52.8313 22.8943L53.3669 22.0497C52.4579 21.4733 51.7633 20.7123 51.2762 19.7603L50.386 20.2157ZM52.8388 22.8989C53.9134 23.5542 55.1707 23.872 56.5911 23.872V22.872C55.3234 22.872 54.2527 22.5898 53.3594 22.0451L52.8388 22.8989ZM56.5911 23.872C58.0114 23.872 59.2687 23.5542 60.3434 22.8989L59.8228 22.0451C58.9294 22.5898 57.8587 22.872 56.5911 22.872V23.872ZM60.3509 22.8943C61.4118 22.2215 62.2192 21.3238 62.7644 20.2074L61.8658 19.7686C61.403 20.7162 60.7224 21.4745 59.8153 22.0497L60.3509 22.8943ZM62.7602 20.2157C63.3263 19.1093 63.6071 17.9026 63.6071 16.604H62.6071C62.6071 17.7534 62.3599 18.8027 61.87 19.7603L62.7602 20.2157ZM63.6071 16.604V0.799998H62.6071V16.604H63.6071ZM63.1071 1.3H66.5631V0.299998H63.1071V1.3ZM66.0631 0.799998V16.244H67.0631V0.799998H66.0631ZM66.0631 16.244C66.0631 18.262 65.646 19.9865 64.8313 21.4349L65.7029 21.9251C66.6161 20.3015 67.0631 18.402 67.0631 16.244H66.0631ZM64.8284 21.4401C64.0338 22.8931 62.9269 23.9988 61.5016 24.768L61.9765 25.648C63.5752 24.7852 64.8204 23.5389 65.7058 21.9199L64.8284 21.4401ZM61.4987 24.7696C60.0945 25.5396 58.4634 25.932 56.5911 25.932V26.932C58.6068 26.932 60.4077 26.5084 61.9795 25.6464L61.4987 24.7696ZM85.2533 25.532L84.99 25.9573L85.002 25.9643L85.2533 25.532ZM82.8773 23.012L83.3162 22.7726L82.8773 23.012ZM81.5453 5.12L81.9757 4.86563V4.86563L81.5453 5.12ZM80.2853 3.86L80.0309 4.29046L80.2853 3.86ZM76.8293 3.86L76.5748 3.42945L76.5661 3.43487L76.8293 3.86ZM75.6053 5.12L75.1748 4.86563L75.1704 4.87303L75.1663 4.88057L75.6053 5.12ZM75.1733 26V26.5H75.6733V26H75.1733ZM71.7173 26H71.2173V26.5H71.7173V26ZM72.5813 3.788L72.1423 3.54857L72.5813 3.788ZM74.9933 1.304L75.2446 1.73631L75.252 1.73186L74.9933 1.304ZM82.1573 1.304L81.8985 1.73193L81.906 1.73625L82.1573 1.304ZM84.5693 3.788L85.0082 3.54857L84.5693 3.788ZM85.9013 21.68L85.4708 21.9344L85.9013 21.68ZM87.1253 22.94L86.862 23.3652L86.8709 23.3705L87.1253 22.94ZM90.4733 22.94L90.2101 22.5149L90.4733 22.94ZM91.6613 21.68L91.2308 21.4256L91.2264 21.433L91.2223 21.4406L91.6613 21.68ZM92.1293 0.799998V0.299998H91.6293V0.799998H92.1293ZM95.5853 0.799998H96.0853V0.299998H95.5853V0.799998ZM94.7213 23.012L94.2823 22.7726L94.7213 23.012ZM92.3453 25.532L92.601 25.9617L92.6084 25.9571L92.3453 25.532ZM88.8173 25.932C87.5502 25.932 86.451 25.65 85.5046 25.0997L85.002 25.9643C86.1195 26.614 87.3963 26.932 88.8173 26.932V25.932ZM85.5164 25.1069C84.5833 24.5292 83.8513 23.7537 83.3162 22.7726L82.4383 23.2514C83.0552 24.3823 83.9073 25.2868 84.9901 25.9571L85.5164 25.1069ZM83.3162 22.7726C82.7841 21.797 82.5133 20.6927 82.5133 19.448H81.5133C81.5133 20.8433 81.8185 22.115 82.4383 23.2514L83.3162 22.7726ZM82.5133 19.448V6.884H81.5133V19.448H82.5133ZM82.5133 6.884C82.5133 6.15179 82.3359 5.47509 81.9757 4.86563L81.1148 5.37436C81.3787 5.82091 81.5133 6.32021 81.5133 6.884H82.5133ZM81.9757 4.86563C81.6208 4.26502 81.1402 3.78444 80.5396 3.42954L80.0309 4.29046C80.4863 4.55956 80.8457 4.91898 81.1148 5.37436L81.9757 4.86563ZM80.5396 3.42954C79.9332 3.07119 79.2691 2.892 78.5573 2.892V3.892C79.0934 3.892 79.5813 4.02481 80.0309 4.29046L80.5396 3.42954ZM78.5573 2.892C77.8454 2.892 77.1813 3.07119 76.5749 3.42954L77.0836 4.29046C77.5332 4.02481 78.0211 3.892 78.5573 3.892V2.892ZM76.5661 3.43487C75.9909 3.79093 75.5265 4.27052 75.1748 4.86563L76.0357 5.37436C76.3081 4.91348 76.6596 4.55307 77.0924 4.28513L76.5661 3.43487ZM75.1663 4.88057C74.8352 5.48765 74.6733 6.159 74.6733 6.884H75.6733C75.6733 6.313 75.7993 5.80835 76.0442 5.35942L75.1663 4.88057ZM74.6733 6.884V26H75.6733V6.884H74.6733ZM75.1733 25.5H71.7173V26.5H75.1733V25.5ZM72.2173 26V7.352H71.2173V26H72.2173ZM72.2173 7.352C72.2173 6.10733 72.4881 5.003 73.0202 4.02742L72.1423 3.54857C71.5224 4.685 71.2173 5.95667 71.2173 7.352H72.2173ZM73.0202 4.02742C73.5528 3.05099 74.2922 2.28996 75.2446 1.73625L74.742 0.871745C73.6303 1.51804 72.7617 2.41301 72.1423 3.54857L73.0202 4.02742ZM75.252 1.73186C76.1972 1.16031 77.2937 0.868 78.5573 0.868V-0.132C77.1328 -0.132 75.8533 0.199686 74.7346 0.876132L75.252 1.73186ZM78.5573 0.868C79.8466 0.868 80.9547 1.16114 81.8986 1.73186L82.416 0.876132C81.2959 0.198857 80.0039 -0.132 78.5573 -0.132V0.868ZM81.906 1.73625C82.8583 2.28996 83.5977 3.05099 84.1303 4.02742L85.0082 3.54857C84.3888 2.41301 83.5202 1.51804 82.4086 0.871745L81.906 1.73625ZM84.1303 4.02742C84.6624 5.003 84.9333 6.10733 84.9333 7.352H85.9333C85.9333 5.95667 85.6281 4.685 85.0082 3.54857L84.1303 4.02742ZM84.9333 7.352V19.916H85.9333V7.352H84.9333ZM84.9333 19.916C84.9333 20.6482 85.1107 21.3249 85.4708 21.9344L86.3317 21.4256C86.0679 20.9791 85.9333 20.4798 85.9333 19.916H84.9333ZM85.4708 21.9344C85.8225 22.5295 86.2869 23.0091 86.8621 23.3651L87.3884 22.5149C86.9556 22.2469 86.6041 21.8865 86.3317 21.4256L85.4708 21.9344ZM86.8709 23.3705C87.4742 23.7269 88.1257 23.908 88.8173 23.908V22.908C88.3088 22.908 87.8324 22.7771 87.3796 22.5095L86.8709 23.3705ZM88.8173 23.908C89.509 23.908 90.1524 23.7267 90.7365 23.3651L90.2101 22.5149C89.7862 22.7773 89.3255 22.908 88.8173 22.908V23.908ZM90.7365 23.3651C91.3153 23.0068 91.7713 22.5223 92.1002 21.9194L91.2223 21.4406C90.9752 21.8937 90.6393 22.2492 90.2101 22.5149L90.7365 23.3651ZM92.0917 21.9344C92.4519 21.3249 92.6293 20.6482 92.6293 19.916H91.6293C91.6293 20.4798 91.4947 20.9791 91.2308 21.4256L92.0917 21.9344ZM92.6293 19.916V0.799998H91.6293V19.916H92.6293ZM92.1293 1.3H95.5853V0.299998H92.1293V1.3ZM95.0853 0.799998V19.448H96.0853V0.799998H95.0853ZM95.0853 19.448C95.0853 20.6927 94.8145 21.797 94.2823 22.7726L95.1602 23.2514C95.7801 22.115 96.0853 20.8433 96.0853 19.448H95.0853ZM94.2823 22.7726C93.7472 23.7537 93.0153 24.5292 92.0821 25.1069L92.6084 25.9571C93.6913 25.2868 94.5434 24.3823 95.1602 23.2514L94.2823 22.7726ZM92.0895 25.1024C91.1696 25.6499 90.0846 25.932 88.8173 25.932V26.932C90.2379 26.932 91.5049 26.6141 92.601 25.9616L92.0895 25.1024ZM116.24 33.2L116.468 32.7551L116.463 32.7528L116.24 33.2ZM114.08 31.148L114.512 30.8975L114.08 31.148ZM113.324 26.9L112.825 26.8617L112.825 26.8644L113.324 26.9ZM113.432 25.928L113.927 25.9987L114.013 25.3916L113.401 25.4289L113.432 25.928ZM107.96 25.244L108.122 24.771L107.96 25.244ZM103.568 22.688L103.229 23.0554L103.232 23.0589L103.568 22.688ZM100.652 18.548L100.192 18.7441L100.193 18.7466L100.652 18.548ZM100.508 8.216L100.973 8.39793L100.974 8.39549L100.508 8.216ZM103.1 4.112L102.739 3.76589L103.1 4.112ZM107.168 1.376L107.357 1.83879L107.361 1.83733L107.168 1.376ZM117.788 1.34L117.977 0.877224L117.788 1.34ZM121.856 4.076L121.495 4.42213L121.498 4.42581L121.856 4.076ZM124.448 8.072L123.983 8.25644L123.986 8.26274L124.448 8.072ZM124.664 30.86L124.216 30.6364L124.214 30.6408L124.664 30.86ZM122.612 33.128L122.356 32.6982L122.351 32.7014L122.612 33.128ZM121.172 29.96L120.802 29.6228L120.795 29.6307L121.172 29.96ZM121.928 18.98H122.428V18.0609L121.656 18.5602L121.928 18.98ZM119.012 21.392L119.387 21.7228V21.7228L119.012 21.392ZM117.392 23.768L116.939 23.5557L116.934 23.5676L117.392 23.768ZM116.708 25.892L116.216 25.801L116.214 25.8098L116.213 25.8187L116.708 25.892ZM116.924 29.276L116.476 29.4996L116.481 29.508L116.924 29.276ZM117.932 30.428L117.66 30.8478L117.932 30.428ZM113.576 22.94L113.611 23.4387L113.629 23.4375L113.646 23.435L113.576 22.94ZM114.656 22.724L114.777 23.2091L115.022 23.1478L115.118 22.9144L114.656 22.724ZM116.06 20.24L115.658 19.9418L115.653 19.9494L116.06 20.24ZM118.4 17.756L118.728 18.1329L118.729 18.1323L118.4 17.756ZM121.928 15.416L122.157 15.8601L122.428 15.7203V15.416H121.928ZM121.208 9.188L120.741 9.36882L120.746 9.38031L121.208 9.188ZM119.228 6.164L118.869 6.51268L118.879 6.5225L119.228 6.164ZM116.24 4.148L116.039 4.60615L116.047 4.60954L116.24 4.148ZM108.716 4.148L108.911 4.6081L108.916 4.60608L108.716 4.148ZM105.728 6.2L105.369 5.85129L105.364 5.8564L105.728 6.2ZM103.748 9.332L103.283 9.14629L103.282 9.15124L103.748 9.332ZM103.748 17.072L103.28 17.2497L103.285 17.2609L103.748 17.072ZM105.728 20.168L105.364 20.5116L105.369 20.5167L105.728 20.168ZM108.716 22.256L108.512 22.7127L108.523 22.7175L108.716 22.256ZM119.444 33.42C118.312 33.42 117.324 33.1941 116.468 32.7551L116.012 33.6449C117.028 34.1659 118.176 34.42 119.444 34.42V33.42ZM116.463 32.7528C115.642 32.342 114.993 31.7279 114.512 30.8975L113.647 31.3985C114.222 32.3921 115.014 33.146 116.016 33.6472L116.463 32.7528ZM114.512 30.8975C114.037 30.076 113.788 29.0742 113.788 27.872H112.788C112.788 29.2138 113.067 30.396 113.647 31.3985L114.512 30.8975ZM113.788 27.872C113.788 27.5728 113.799 27.2607 113.822 26.9356L112.825 26.8644C112.8 27.2113 112.788 27.5472 112.788 27.872H113.788ZM113.822 26.9384C113.845 26.638 113.88 26.3249 113.927 25.9987L112.937 25.8573C112.887 26.2031 112.85 26.538 112.825 26.8617L113.822 26.9384ZM113.401 25.4289C111.491 25.5454 109.734 25.3236 108.122 24.771L107.798 25.717C109.546 26.3164 111.436 26.5506 113.462 26.4271L113.401 25.4289ZM108.122 24.771C106.502 24.2157 105.098 23.3972 103.903 22.3171L103.232 23.0589C104.533 24.2348 106.057 25.1203 107.798 25.717L108.122 24.771ZM103.907 22.3206C102.712 21.2174 101.78 19.8955 101.111 18.3494L100.193 18.7466C100.916 20.4165 101.928 21.8546 103.229 23.0554L103.907 22.3206ZM101.112 18.3519C100.445 16.7876 100.108 15.0671 100.108 13.184H99.1077C99.1077 15.1889 99.4669 17.0444 100.192 18.7441L101.112 18.3519ZM100.108 13.184C100.108 11.4654 100.398 9.87161 100.973 8.39792L100.042 8.03407C99.4176 9.63239 99.1077 11.3506 99.1077 13.184H100.108ZM100.974 8.39549C101.551 6.89588 102.38 5.58491 103.461 4.45811L102.739 3.76589C101.564 4.99109 100.664 6.41612 100.041 8.03651L100.974 8.39549ZM103.461 4.45811C104.538 3.33509 105.834 2.46166 107.357 1.83877L106.978 0.913226C105.333 1.58634 103.918 2.53691 102.739 3.76589L103.461 4.45811ZM107.361 1.83733C108.901 1.19365 110.61 0.868 112.496 0.868V-0.132C110.493 -0.132 108.651 0.214351 106.975 0.914665L107.361 1.83733ZM112.496 0.868C114.384 0.868 116.082 1.18247 117.598 1.80277L117.977 0.877224C116.325 0.201528 114.496 -0.132 112.496 -0.132V0.868ZM117.598 1.80277C119.121 2.42566 120.418 3.29909 121.495 4.42211L122.217 3.72989C121.038 2.50091 119.622 1.55033 117.977 0.877224L117.598 1.80277ZM121.498 4.42581C122.58 5.52993 123.407 6.80557 123.983 8.25642L124.912 7.88758C124.288 6.31442 123.388 4.92607 122.213 3.72619L121.498 4.42581ZM123.986 8.26274C124.583 9.71005 124.884 11.2767 124.884 12.968H125.884C125.884 11.1553 125.561 9.45795 124.91 7.88126L123.986 8.26274ZM124.884 12.968V27.476H125.884V12.968H124.884ZM124.884 27.476C124.884 28.7103 124.655 29.7588 124.216 30.6364L125.111 31.0836C125.632 30.0412 125.884 28.8337 125.884 27.476H124.884ZM124.214 30.6408C123.774 31.5427 123.155 32.2231 122.356 32.6982L122.867 33.5578C123.844 32.9769 124.593 32.1453 125.113 31.0792L124.214 30.6408ZM122.351 32.7014C121.582 33.1714 120.621 33.42 119.444 33.42V34.42C120.762 34.42 121.914 34.1406 122.872 33.5546L122.351 32.7014ZM119.228 31.324C120.158 31.324 120.945 30.978 121.548 30.2893L120.795 29.6307C120.39 30.094 119.881 30.324 119.228 30.324V31.324ZM121.541 30.2971C122.158 29.621 122.428 28.6774 122.428 27.548H121.428C121.428 28.5306 121.193 29.195 120.802 29.6229L121.541 30.2971ZM122.428 27.548V18.98H121.428V27.548H122.428ZM121.656 18.5602C120.406 19.3692 119.395 20.2016 118.637 21.0612L119.387 21.7228C120.068 20.9504 121.002 20.1748 122.199 19.3998L121.656 18.5602ZM118.637 21.0612C117.894 21.9033 117.324 22.7346 116.939 23.5558L117.844 23.9802C118.18 23.2654 118.69 22.5127 119.387 21.7228L118.637 21.0612ZM116.934 23.5676C116.586 24.3617 116.345 25.1068 116.216 25.801L117.199 25.983C117.311 25.3812 117.525 24.7103 117.85 23.9684L116.934 23.5676ZM116.213 25.8187C116.115 26.48 116.064 27.0464 116.064 27.512H117.064C117.064 27.1136 117.108 26.6 117.202 25.9653L116.213 25.8187ZM116.064 27.512C116.064 28.2634 116.193 28.9327 116.476 29.4996L117.371 29.0524C117.174 28.6593 117.064 28.1526 117.064 27.512H116.064ZM116.481 29.508C116.778 30.0752 117.168 30.5296 117.66 30.8478L118.203 30.0082C117.879 29.7984 117.598 29.4848 117.367 29.044L116.481 29.508ZM117.66 30.8478C118.143 31.1605 118.669 31.324 119.228 31.324V30.324C118.875 30.324 118.536 30.2235 118.203 30.0082L117.66 30.8478ZM112.496 23.476C112.89 23.476 113.262 23.4637 113.611 23.4387L113.54 22.4413C113.217 22.4643 112.869 22.476 112.496 22.476V23.476ZM113.646 23.435C114.002 23.3842 114.379 23.3086 114.777 23.2091L114.534 22.2389C114.164 22.3314 113.821 22.3998 113.505 22.445L113.646 23.435ZM115.118 22.9144C115.437 22.1392 115.885 21.3446 116.467 20.5306L115.653 19.9494C115.034 20.8154 114.546 21.6768 114.193 22.5336L115.118 22.9144ZM116.461 20.5382C117.06 19.7317 117.814 18.9296 118.728 18.1329L118.071 17.3791C117.113 18.2144 116.307 19.0683 115.658 19.9418L116.461 20.5382ZM118.729 18.1323C119.653 17.324 120.793 16.5656 122.157 15.8601L121.698 14.9719C120.278 15.7064 119.067 16.508 118.07 17.3797L118.729 18.1323ZM122.428 15.416V12.968H121.428V15.416H122.428ZM122.428 12.968C122.428 11.5404 122.177 10.2143 121.669 8.99569L120.746 9.38031C121.198 10.4657 121.428 11.6596 121.428 12.968H122.428ZM121.674 9.00724C121.193 7.76743 120.494 6.69794 119.576 5.8055L118.879 6.5225C119.689 7.31005 120.31 8.25657 120.742 9.36876L121.674 9.00724ZM119.586 5.81546C118.697 4.9012 117.644 4.19154 116.432 3.68646L116.047 4.60954C117.139 5.06446 118.078 5.6988 118.869 6.51254L119.586 5.81546ZM116.44 3.68992C115.221 3.1564 113.904 2.892 112.496 2.892V3.892C113.776 3.892 114.955 4.1316 116.039 4.60608L116.44 3.68992ZM112.496 2.892C111.065 2.892 109.736 3.15592 108.515 3.68992L108.916 4.60608C110 4.13208 111.191 3.892 112.496 3.892V2.892ZM108.52 3.68792C107.33 4.19418 106.279 4.91629 105.369 5.85132L106.086 6.54868C106.904 5.70771 107.845 5.06182 108.911 4.60808L108.52 3.68792ZM105.364 5.8564C104.479 6.79278 103.786 7.89117 103.283 9.1463L104.212 9.51769C104.67 8.37283 105.297 7.38322 106.091 6.5436L105.364 5.8564ZM103.282 9.15124C102.801 10.3906 102.564 11.7366 102.564 13.184H103.564C103.564 11.8474 103.782 10.6254 104.214 9.51276L103.282 9.15124ZM102.564 13.184C102.564 14.6316 102.801 15.9883 103.28 17.2496L104.215 16.8944C103.782 15.7557 103.564 14.5204 103.564 13.184H102.564ZM103.285 17.2609C103.787 18.4919 104.48 19.5769 105.364 20.5116L106.091 19.8244C105.295 18.9831 104.668 18.0041 104.211 16.8831L103.285 17.2609ZM105.369 20.5167C106.277 21.4499 107.326 22.1826 108.512 22.7125L108.92 21.7995C107.85 21.3214 106.906 20.6621 106.086 19.8193L105.369 20.5167ZM108.523 22.7175C109.742 23.2253 111.068 23.476 112.496 23.476V22.476C111.187 22.476 109.993 22.2467 108.908 21.7945L108.523 22.7175ZM129.749 11.348L129.387 11.6924L129.396 11.7017L129.405 11.7105L129.749 11.348ZM129.749 8L130.103 8.35355L129.749 8ZM133.097 8L132.735 8.34437L132.744 8.35367L132.753 8.3625L133.097 8ZM133.097 11.348L133.451 11.7016L133.097 11.348ZM129.065 31.4L128.588 31.2509L128.385 31.9H129.065V31.4ZM130.685 26.216L131.163 26.3651L131.311 25.8904L130.837 25.7395L130.685 26.216ZM129.461 25.316L129.029 25.5665L129.036 25.5802L129.045 25.5933L129.461 25.316ZM129.749 22.292L130.093 22.655L130.094 22.6545L129.749 22.292ZM133.169 22.328L133.541 21.9935L133.169 22.328ZM133.709 25.352L134.201 25.4441L134.202 25.4389L133.709 25.352ZM133.313 26.684L132.846 26.506L132.84 26.5218L132.835 26.538L133.313 26.684ZM131.873 31.4V31.9H132.243L132.351 31.546L131.873 31.4ZM131.441 11.532C130.924 11.532 130.483 11.3554 130.094 10.9855L129.405 11.7105C129.976 12.2526 130.662 12.532 131.441 12.532V11.532ZM130.112 11.0036C129.742 10.6143 129.565 10.1728 129.565 9.656H128.565C128.565 10.4352 128.845 11.1217 129.387 11.6924L130.112 11.0036ZM129.565 9.656C129.565 9.13988 129.741 8.71527 130.103 8.35355L129.396 7.64645C128.845 8.19672 128.565 8.87611 128.565 9.656H129.565ZM130.103 8.35355C130.494 7.96235 130.933 7.78 131.441 7.78V6.78C130.654 6.78 129.965 7.07764 129.396 7.64645L130.103 8.35355ZM131.441 7.78C131.949 7.78 132.371 7.9613 132.735 8.34437L133.46 7.65563C132.912 7.0787 132.23 6.78 131.441 6.78V7.78ZM132.753 8.3625C133.136 8.72642 133.317 9.14838 133.317 9.656H134.317C134.317 8.86762 134.019 8.18558 133.442 7.6375L132.753 8.3625ZM133.317 9.656C133.317 10.1645 133.135 10.6032 132.744 10.9944L133.451 11.7016C134.02 11.1328 134.317 10.4435 134.317 9.656H133.317ZM132.744 10.9944C132.382 11.3562 131.957 11.532 131.441 11.532V12.532C132.221 12.532 132.901 12.2518 133.451 11.7016L132.744 10.9944ZM129.543 31.5491L131.163 26.3651L130.208 26.0669L128.588 31.2509L129.543 31.5491ZM130.837 25.7395C130.409 25.6035 130.098 25.3696 129.877 25.0387L129.045 25.5933C129.401 26.1264 129.905 26.4925 130.534 26.6925L130.837 25.7395ZM129.894 25.0655C129.667 24.6736 129.565 24.3031 129.565 23.948H128.565C128.565 24.5049 128.727 25.0464 129.029 25.5665L129.894 25.0655ZM129.565 23.948C129.565 23.4026 129.744 22.9854 130.093 22.655L129.405 21.929C128.842 22.4626 128.565 23.1494 128.565 23.948H129.565ZM130.094 22.6545C130.483 22.2846 130.924 22.108 131.441 22.108V21.108C130.662 21.108 129.976 21.3874 129.405 21.9295L130.094 22.6545ZM131.441 22.108C132.038 22.108 132.472 22.3006 132.798 22.6625L133.541 21.9935C133.003 21.3954 132.285 21.108 131.441 21.108V22.108ZM132.798 22.6625C133.143 23.0467 133.317 23.502 133.317 24.056H134.317C134.317 23.266 134.059 22.5693 133.541 21.9935L132.798 22.6625ZM133.317 24.056C133.317 24.4857 133.283 24.8885 133.217 25.2651L134.202 25.4389C134.279 24.9995 134.317 24.5383 134.317 24.056H133.317ZM133.218 25.2599C133.153 25.6059 133.031 26.0202 132.846 26.506L133.781 26.862C133.979 26.3398 134.122 25.8661 134.201 25.4441L133.218 25.2599ZM132.835 26.538L131.395 31.254L132.351 31.546L133.791 26.83L132.835 26.538ZM131.873 30.9H129.065V31.9H131.873V30.9ZM0.671547 62H0.171547V62.5H0.671547V62ZM0.671547 36.8V36.3H0.171547V36.8H0.671547ZM15.6835 38.42L15.4407 38.8571L15.443 38.8583L15.6835 38.42ZM20.2555 42.884L19.8211 43.1315L20.2555 42.884ZM20.2555 55.916L19.8211 55.6685L20.2555 55.916ZM15.6835 60.38L15.443 59.9417L15.4407 59.9429L15.6835 60.38ZM4.12755 58.94H3.62755V59.44H4.12755V58.94ZM13.7395 57.788L13.5073 57.3452L13.5042 57.3468L13.7395 57.788ZM17.1955 54.512L17.6256 54.7671L17.6274 54.7639L17.1955 54.512ZM13.7395 41.012L13.5042 41.4532L13.5073 41.4548L13.7395 41.012ZM4.12755 39.86V39.36H3.62755V39.86H4.12755ZM1.17155 62V36.8H0.171547V62H1.17155ZM0.671547 37.3H8.73555V36.3H0.671547V37.3ZM8.73555 37.3C11.3562 37.3 13.585 37.8261 15.4407 38.8571L15.9264 37.9829C13.8941 36.8539 11.4909 36.3 8.73555 36.3V37.3ZM15.443 38.8583C17.3324 39.8952 18.7882 41.3182 19.8211 43.1315L20.69 42.6365C19.5629 40.6578 17.9707 39.1048 15.9241 37.9817L15.443 38.8583ZM19.8211 43.1315C20.8531 44.9432 21.3755 47.028 21.3755 49.4H22.3755C22.3755 46.876 21.818 44.6168 20.69 42.6365L19.8211 43.1315ZM21.3755 49.4C21.3755 51.772 20.8531 53.8568 19.8211 55.6685L20.69 56.1635C21.818 54.1832 22.3755 51.924 22.3755 49.4H21.3755ZM19.8211 55.6685C18.7882 57.4818 17.3324 58.9048 15.443 59.9417L15.9241 60.8183C17.9707 59.6952 19.5629 58.1422 20.69 56.1635L19.8211 55.6685ZM15.4407 59.9429C13.585 60.9739 11.3562 61.5 8.73555 61.5V62.5C11.4909 62.5 13.8941 61.9461 15.9264 60.8171L15.4407 59.9429ZM8.73555 61.5H0.671547V62.5H8.73555V61.5ZM4.12755 59.44H8.77155V58.44H4.12755V59.44ZM8.77155 59.44C10.7135 59.44 12.4524 59.0411 13.9748 58.2292L13.5042 57.3468C12.1467 58.0709 10.5736 58.44 8.77155 58.44V59.44ZM13.9718 58.2308C15.5175 57.4199 16.7381 56.2631 17.6256 54.7671L16.7655 54.2569C15.973 55.5929 14.8896 56.6201 13.5073 57.3452L13.9718 58.2308ZM17.6274 54.7639C18.5195 53.2347 18.9556 51.4404 18.9556 49.4H17.9556C17.9556 51.2956 17.5516 52.9093 16.7637 54.2601L17.6274 54.7639ZM18.9556 49.4C18.9556 47.3371 18.5201 45.5409 17.6256 44.0329L16.7655 44.5431C17.551 45.8671 17.9556 47.4789 17.9556 49.4H18.9556ZM17.6256 44.0329C16.7381 42.5369 15.5175 41.3801 13.9718 40.5692L13.5073 41.4548C14.8896 42.1799 15.973 43.2071 16.7655 44.5431L17.6256 44.0329ZM13.9748 40.5708C12.4524 39.7589 10.7135 39.36 8.77155 39.36V40.36C10.5736 40.36 12.1467 40.7291 13.5042 41.4532L13.9748 40.5708ZM8.77155 39.36H4.12755V40.36H8.77155V39.36ZM3.62755 39.86V58.94H4.62755V39.86H3.62755ZM29.9767 60.884L29.7558 61.3326L29.7614 61.3353L29.9767 60.884ZM26.3047 57.68L25.8798 57.9437L25.8853 57.9522L26.3047 57.68ZM26.1247 47.924L26.5689 48.1535L26.5704 48.1505L26.1247 47.924ZM29.2207 44.468L28.9522 44.0462L29.2207 44.468ZM38.5447 44.432L38.271 44.8505L38.2747 44.8528L38.5447 44.432ZM41.3887 47.744L40.9324 47.9485L40.9338 47.9515L41.3887 47.744ZM42.2887 53.18L41.7904 53.1385L41.7887 53.1592V53.18H42.2887ZM42.2167 53.936V54.436H42.6178L42.7048 54.0445L42.2167 53.936ZM28.5367 53.936V53.436H27.9807L28.0395 53.9889L28.5367 53.936ZM29.6527 56.816L29.2599 57.1255L29.2646 57.1313L29.6527 56.816ZM32.0287 58.58L31.8331 59.0402L31.84 59.0431L31.8469 59.0458L32.0287 58.58ZM40.0567 59.156H40.5567V58.656H40.0567V59.156ZM40.0567 62V62.5H40.5567V62H40.0567ZM28.5007 51.596L28.0019 51.5604L27.9637 52.096H28.5007V51.596ZM38.9767 51.596V52.096H39.4767V51.596H38.9767ZM38.8327 50.156L38.3407 50.2454L38.3415 50.2496L38.8327 50.156ZM38.3287 48.644L37.8772 48.859L37.8815 48.8676L38.3287 48.644ZM37.3567 47.312L36.9926 47.6547L37.003 47.6657L37.014 47.6761L37.3567 47.312ZM35.8807 46.34L35.6883 46.8016L35.695 46.8042L35.8807 46.34ZM31.5967 46.484L31.8203 46.9313L31.8268 46.9279L31.5967 46.484ZM29.9767 47.78L30.3552 48.1069L30.3622 48.0984L29.9767 47.78ZM28.9327 49.58L29.4035 49.7482L28.9327 49.58ZM35.3407 61.5C33.3868 61.5 31.6744 61.1397 30.1919 60.4327L29.7614 61.3353C31.399 62.1163 33.2625 62.5 35.3407 62.5V61.5ZM30.1975 60.4354C28.7128 59.7045 27.5597 58.6951 26.7241 57.4078L25.8853 57.9522C26.8256 59.4009 28.1205 60.5275 29.7558 61.3326L30.1975 60.4354ZM26.7295 57.4163C25.9207 56.1133 25.5087 54.5871 25.5087 52.82H24.5087C24.5087 54.7489 24.9606 56.4627 25.8799 57.9437L26.7295 57.4163ZM25.5087 52.82C25.5087 51.0657 25.8659 49.5141 26.5689 48.1535L25.6805 47.6945C24.8954 49.2139 24.5087 50.9263 24.5087 52.82H25.5087ZM26.5704 48.1505C27.276 46.7622 28.2484 45.6793 29.4891 44.8898L28.9522 44.0462C27.5529 44.9367 26.4614 46.1578 25.6789 47.6975L26.5704 48.1505ZM29.4891 44.8898C30.7195 44.1068 32.16 43.708 33.8287 43.708V42.708C31.9933 42.708 30.3618 43.1492 28.9522 44.0462L29.4891 44.8898ZM33.8287 43.708C35.6537 43.708 37.1239 44.1004 38.271 44.8505L38.8183 44.0135C37.4695 43.1316 35.7956 42.708 33.8287 42.708V43.708ZM38.2747 44.8528C39.4641 45.6159 40.3478 46.6443 40.9324 47.9485L41.8449 47.5395C41.1816 46.0597 40.1693 44.8801 38.8147 44.0112L38.2747 44.8528ZM40.9338 47.9515C41.5243 49.2462 41.8247 50.71 41.8247 52.352H42.8247C42.8247 50.586 42.501 48.9778 41.8436 47.5365L40.9338 47.9515ZM41.8247 52.352C41.8247 52.6009 41.8134 52.863 41.7904 53.1385L42.7869 53.2215C42.812 52.921 42.8247 52.6311 42.8247 52.352H41.8247ZM41.7887 53.18C41.7887 53.4418 41.7667 53.6559 41.7286 53.8275L42.7048 54.0445C42.7626 53.7841 42.7887 53.4942 42.7887 53.18H41.7887ZM42.2167 53.436H28.5367V54.436H42.2167V53.436ZM28.0395 53.9889C28.1682 55.1985 28.5706 56.2505 29.2599 57.1254L30.0454 56.5066C29.4868 55.7975 29.1452 54.9295 29.0339 53.8831L28.0395 53.9889ZM29.2646 57.1313C29.9428 57.966 30.8023 58.6021 31.8331 59.0402L32.2242 58.1198C31.3351 57.7419 30.6105 57.202 30.0407 56.5007L29.2646 57.1313ZM31.8469 59.0458C32.895 59.4548 34.0375 59.656 35.2687 59.656V58.656C34.1478 58.656 33.1303 58.4732 32.2104 58.1142L31.8469 59.0458ZM35.2687 59.656H40.0567V58.656H35.2687V59.656ZM39.5567 59.156V62H40.5567V59.156H39.5567ZM40.0567 61.5H35.3407V62.5H40.0567V61.5ZM28.5007 52.096H38.9767V51.096H28.5007V52.096ZM39.4767 51.596C39.4767 51.105 39.425 50.5935 39.3238 50.0624L38.3415 50.2496C38.4323 50.7265 38.4767 51.175 38.4767 51.596H39.4767ZM39.3246 50.0666C39.2201 49.4919 39.0371 48.9428 38.7759 48.4204L37.8815 48.8676C38.1003 49.3052 38.2532 49.7641 38.3407 50.2454L39.3246 50.0666ZM38.7801 48.429C38.5133 47.8688 38.1524 47.3743 37.6994 46.9479L37.014 47.6761C37.377 48.0177 37.664 48.4112 37.8772 48.859L38.7801 48.429ZM37.7208 46.9693C37.2798 46.5007 36.7236 46.1387 36.0664 45.8758L35.695 46.8042C36.2377 47.0213 36.6656 47.3073 36.9926 47.6547L37.7208 46.9693ZM36.073 45.8785C35.422 45.6072 34.6696 45.48 33.8287 45.48V46.48C34.5717 46.48 35.1873 46.5928 35.6884 46.8015L36.073 45.8785ZM33.8287 45.48C32.9207 45.48 32.0957 45.662 31.3665 46.0401L31.8268 46.9279C32.3937 46.634 33.0566 46.48 33.8287 46.48V45.48ZM31.3731 46.0368C30.6851 46.3808 30.0904 46.8573 29.5912 47.4616L30.3622 48.0984C30.775 47.5987 31.2603 47.2112 31.8203 46.9312L31.3731 46.0368ZM29.5983 47.4532C29.101 48.029 28.7221 48.683 28.4618 49.4118L29.4035 49.7482C29.6233 49.1329 29.9404 48.587 30.3551 48.1068L29.5983 47.4532ZM28.4618 49.4118C28.2075 50.124 28.0534 50.8405 28.0019 51.5604L28.9994 51.6316C29.044 51.0075 29.1779 50.38 29.4035 49.7482L28.4618 49.4118ZM46.5479 62H46.0479V62.5H46.5479V62ZM46.5479 35.72V35.22H46.0479V35.72H46.5479ZM49.8599 35.72H50.3599V35.22H49.8599V35.72ZM49.8599 62V62.5H50.3599V62H49.8599ZM47.0479 62V35.72H46.0479V62H47.0479ZM46.5479 36.22H49.8599V35.22H46.5479V36.22ZM49.3599 35.72V62H50.3599V35.72H49.3599ZM49.8599 61.5H46.5479V62.5H49.8599V61.5ZM55.126 62H54.626V62.5H55.126V62ZM55.126 43.64V43.14H54.626V43.64H55.126ZM58.474 43.64H58.974V43.14H58.474V43.64ZM58.474 62V62.5H58.974V62H58.474ZM55.234 40.076L54.8711 40.4199L54.8804 40.4297L54.8902 40.439L55.234 40.076ZM55.234 36.944L54.8805 36.5904L55.234 36.944ZM58.3661 36.944L58.0031 37.2879L58.0124 37.2977L58.0222 37.307L58.3661 36.944ZM58.3661 40.076L58.0125 39.7224L58.3661 40.076ZM55.626 62V43.64H54.626V62H55.626ZM55.126 44.14H58.474V43.14H55.126V44.14ZM57.974 43.64V62H58.974V43.64H57.974ZM58.474 61.5H55.126V62.5H58.474V61.5ZM56.818 40.224C56.3525 40.224 55.9459 40.0616 55.5779 39.713L54.8902 40.439C55.4342 40.9544 56.0836 41.224 56.818 41.224V40.224ZM55.597 39.7321C55.2485 39.3642 55.086 38.9576 55.086 38.492H54.086C54.086 39.2264 54.3556 39.8758 54.8711 40.4199L55.597 39.7321ZM55.086 38.492C55.086 38.0273 55.2475 37.6377 55.5876 37.2976L54.8805 36.5904C54.3566 37.1143 54.086 37.7567 54.086 38.492H55.086ZM55.5876 37.2976C55.9576 36.9276 56.3612 36.76 56.818 36.76V35.76C56.0749 35.76 55.4225 36.0484 54.8805 36.5904L55.5876 37.2976ZM56.818 36.76C57.2737 36.76 57.6605 36.9263 58.0031 37.2879L58.729 36.6001C58.2076 36.0497 57.5624 35.76 56.818 35.76V36.76ZM58.0222 37.307C58.3838 37.6495 58.55 38.0364 58.55 38.492H59.55C59.55 37.7476 59.2603 37.1025 58.7099 36.581L58.0222 37.307ZM58.55 38.492C58.55 38.9488 58.3825 39.3525 58.0125 39.7224L58.7196 40.4296C59.2616 39.8875 59.55 39.2352 59.55 38.492H58.55ZM58.0125 39.7224C57.6723 40.0626 57.2828 40.224 56.818 40.224V41.224C57.5533 41.224 58.1957 40.9534 58.7196 40.4296L58.0125 39.7224ZM69.2122 61.748L68.9146 62.1498L68.9229 62.1559L68.9314 62.1617L69.2122 61.748ZM67.7722 59.732L68.2425 59.5622L68.2409 59.5579L67.7722 59.732ZM61.7962 43.64V43.14H61.0771L61.3274 43.8141L61.7962 43.64ZM65.4322 43.64L65.9029 43.4713L65.7841 43.14H65.4322V43.64ZM70.7602 58.508L70.2895 58.6767L70.2926 58.6852L70.2959 58.6937L70.7602 58.508ZM71.0842 59.012L71.3965 58.6216L71.0842 59.012ZM71.8762 59.012L71.5638 58.6216L71.5422 58.6389L71.5226 58.6584L71.8762 59.012ZM72.2002 58.508L72.6644 58.6937L72.6676 58.6857L72.6705 58.6777L72.2002 58.508ZM77.5642 43.64V43.14H77.213L77.0938 43.4703L77.5642 43.64ZM81.1282 43.64L81.5969 43.8141L81.8472 43.14H81.1282V43.64ZM75.1522 59.732L75.6182 59.9132L75.6209 59.9061L75.1522 59.732ZM73.6762 61.748L73.964 62.157L73.9738 62.1498L73.6762 61.748ZM71.4442 61.932C70.7278 61.932 70.0817 61.7338 69.4929 61.3343L68.9314 62.1617C69.6867 62.6742 70.5286 62.932 71.4442 62.932V61.932ZM69.5098 61.3462C68.9516 60.9327 68.5258 60.3468 68.2424 59.5622L67.3019 59.9018C67.6425 60.8452 68.1768 61.6033 68.9146 62.1498L69.5098 61.3462ZM68.2409 59.5579L62.2649 43.4659L61.3274 43.8141L67.3035 59.9061L68.2409 59.5579ZM61.7962 44.14H65.4322V43.14H61.7962V44.14ZM64.9615 43.8087L70.2895 58.6767L71.2309 58.3393L65.9029 43.4713L64.9615 43.8087ZM70.2959 58.6937C70.4047 58.9657 70.5529 59.2273 70.7718 59.4024L71.3965 58.6216C71.3754 58.6047 71.3076 58.5303 71.2244 58.3223L70.2959 58.6937ZM70.7718 59.4024C70.9741 59.5642 71.2147 59.656 71.4802 59.656V58.656C71.4576 58.656 71.4343 58.6518 71.3965 58.6216L70.7718 59.4024ZM71.4802 59.656C71.7474 59.656 72.0187 59.5765 72.2297 59.3656L71.5226 58.6584C71.5246 58.6564 71.5274 58.6542 71.5304 58.6523C71.5334 58.6504 71.5351 58.6498 71.5343 58.6501C71.5326 58.6507 71.517 58.656 71.4802 58.656V59.656ZM72.1885 59.4024C72.4074 59.2273 72.5556 58.9657 72.6644 58.6937L71.7359 58.3223C71.6527 58.5303 71.5849 58.6047 71.5638 58.6216L72.1885 59.4024ZM72.6705 58.6777L78.0345 43.8097L77.0938 43.4703L71.7298 58.3383L72.6705 58.6777ZM77.5642 44.14H81.1282V43.14H77.5642V44.14ZM80.6595 43.4659L74.6834 59.5579L75.6209 59.9061L81.5969 43.8141L80.6595 43.4659ZM74.6862 59.5508C74.3791 60.3403 73.9399 60.9304 73.3786 61.3462L73.9738 62.1498C74.7084 61.6056 75.2532 60.8517 75.6182 59.9132L74.6862 59.5508ZM73.3884 61.3391C72.8299 61.7322 72.1877 61.932 71.4442 61.932V62.932C72.3806 62.932 73.2265 62.6758 73.9639 62.1569L73.3884 61.3391ZM87.7384 60.884L87.5175 61.3326L87.5231 61.3353L87.7384 60.884ZM84.0664 57.68L83.6415 57.9437L83.647 57.9522L84.0664 57.68ZM83.8864 47.924L84.3306 48.1535L84.3321 48.1505L83.8864 47.924ZM86.9824 44.468L86.714 44.0462L86.9824 44.468ZM96.3064 44.432L96.0328 44.8505L96.0364 44.8528L96.3064 44.432ZM99.1504 47.744L98.6941 47.9485L98.6955 47.9515L99.1504 47.744ZM100.05 53.18L99.5521 53.1385L99.5504 53.1592V53.18H100.05ZM99.9784 53.936V54.436H100.379L100.466 54.0445L99.9784 53.936ZM86.2984 53.936V53.436H85.7424L85.8012 53.9889L86.2984 53.936ZM87.4144 56.816L87.0216 57.1255L87.0263 57.1313L87.4144 56.816ZM89.7904 58.58L89.5948 59.0402L89.6017 59.0431L89.6086 59.0458L89.7904 58.58ZM97.8184 59.156H98.3184V58.656H97.8184V59.156ZM97.8184 62V62.5H98.3184V62H97.8184ZM86.2624 51.596L85.7637 51.5604L85.7254 52.096H86.2624V51.596ZM96.7384 51.596V52.096H97.2384V51.596H96.7384ZM96.5944 50.156L96.1024 50.2454L96.1032 50.2496L96.5944 50.156ZM96.0904 48.644L95.6389 48.859L95.6432 48.8676L96.0904 48.644ZM95.1184 47.312L94.7543 47.6547L94.7647 47.6657L94.7757 47.6761L95.1184 47.312ZM93.6424 46.34L93.4501 46.8016L93.4567 46.8042L93.6424 46.34ZM89.3584 46.484L89.582 46.9313L89.5885 46.9279L89.3584 46.484ZM87.7384 47.78L88.1169 48.1069L88.1239 48.0984L87.7384 47.78ZM86.6944 49.58L87.1653 49.7482L86.6944 49.58ZM93.1024 61.5C91.1485 61.5 89.4361 61.1397 87.9536 60.4327L87.5231 61.3353C89.1607 62.1163 91.0242 62.5 93.1024 62.5V61.5ZM87.9592 60.4354C86.4745 59.7045 85.3214 58.6951 84.4858 57.4078L83.647 57.9522C84.5873 59.4009 85.8822 60.5275 87.5175 61.3326L87.9592 60.4354ZM84.4912 57.4163C83.6824 56.1133 83.2704 54.5871 83.2704 52.82H82.2704C82.2704 54.7489 82.7224 56.4627 83.6416 57.9437L84.4912 57.4163ZM83.2704 52.82C83.2704 51.0657 83.6276 49.5141 84.3306 48.1535L83.4422 47.6945C82.6571 49.2139 82.2704 50.9263 82.2704 52.82H83.2704ZM84.3321 48.1505C85.0377 46.7622 86.0102 45.6793 87.2508 44.8898L86.714 44.0462C85.3146 44.9367 84.2231 46.1578 83.4406 47.6975L84.3321 48.1505ZM87.2508 44.8898C88.4812 44.1068 89.9217 43.708 91.5904 43.708V42.708C89.7551 42.708 88.1236 43.1492 86.714 44.0462L87.2508 44.8898ZM91.5904 43.708C93.4154 43.708 94.8856 44.1004 96.0328 44.8505L96.58 44.0135C95.2312 43.1316 93.5573 42.708 91.5904 42.708V43.708ZM96.0364 44.8528C97.2258 45.6159 98.1095 46.6443 98.6941 47.9485L99.6066 47.5395C98.9433 46.0597 97.931 44.8801 96.5764 44.0112L96.0364 44.8528ZM98.6955 47.9515C99.286 49.2462 99.5864 50.71 99.5864 52.352H100.586C100.586 50.586 100.263 48.9778 99.6053 47.5365L98.6955 47.9515ZM99.5864 52.352C99.5864 52.6009 99.5751 52.863 99.5521 53.1385L100.549 53.2215C100.574 52.921 100.586 52.6311 100.586 52.352H99.5864ZM99.5504 53.18C99.5504 53.4418 99.5284 53.6559 99.4903 53.8275L100.466 54.0445C100.524 53.7841 100.55 53.4942 100.55 53.18H99.5504ZM99.9784 53.436H86.2984V54.436H99.9784V53.436ZM85.8012 53.9889C85.9299 55.1985 86.3323 56.2505 87.0217 57.1254L87.8071 56.5066C87.2485 55.7975 86.9069 54.9295 86.7956 53.8831L85.8012 53.9889ZM87.0263 57.1313C87.7045 57.966 88.564 58.6021 89.5948 59.0402L89.986 58.1198C89.0968 57.7419 88.3723 57.202 87.8024 56.5007L87.0263 57.1313ZM89.6086 59.0458C90.6568 59.4548 91.7992 59.656 93.0304 59.656V58.656C91.9095 58.656 90.892 58.4732 89.9722 58.1142L89.6086 59.0458ZM93.0304 59.656H97.8184V58.656H93.0304V59.656ZM97.3184 59.156V62H98.3184V59.156H97.3184ZM97.8184 61.5H93.1024V62.5H97.8184V61.5ZM86.2624 52.096H96.7384V51.096H86.2624V52.096ZM97.2384 51.596C97.2384 51.105 97.1867 50.5935 97.0856 50.0624L96.1032 50.2496C96.1941 50.7265 96.2384 51.175 96.2384 51.596H97.2384ZM97.0863 50.0666C96.9819 49.4919 96.7988 48.9428 96.5376 48.4204L95.6432 48.8676C95.862 49.3052 96.0149 49.7641 96.1025 50.2454L97.0863 50.0666ZM96.5418 48.429C96.275 47.8688 95.9141 47.3743 95.4611 46.9479L94.7757 47.6761C95.1387 48.0177 95.4257 48.4112 95.639 48.859L96.5418 48.429ZM95.4825 46.9693C95.0415 46.5007 94.4854 46.1387 93.8281 45.8758L93.4567 46.8042C93.9994 47.0213 94.4273 47.3073 94.7543 47.6547L95.4825 46.9693ZM93.8347 45.8785C93.1838 45.6072 92.4313 45.48 91.5904 45.48V46.48C92.3335 46.48 92.949 46.5928 93.4501 46.8015L93.8347 45.8785ZM91.5904 45.48C90.6824 45.48 89.8574 45.662 89.1282 46.0401L89.5885 46.9279C90.1554 46.634 90.8184 46.48 91.5904 46.48V45.48ZM89.1348 46.0368C88.4468 46.3808 87.8521 46.8573 87.3529 47.4616L88.1239 48.0984C88.5367 47.5987 89.022 47.2112 89.582 46.9312L89.1348 46.0368ZM87.36 47.4532C86.8627 48.029 86.4838 48.683 86.2235 49.4118L87.1653 49.7482C87.385 49.1329 87.7021 48.587 88.1168 48.1068L87.36 47.4532ZM86.2235 49.4118C85.9692 50.124 85.8151 50.8405 85.7637 51.5604L86.7611 51.6316C86.8057 51.0075 86.9396 50.38 87.1653 49.7482L86.2235 49.4118ZM104.202 62H103.702V62.5H104.202V62ZM105.57 45.044L105.923 45.3976L105.57 45.044ZM113.202 43.64H113.702V43.14H113.202V43.64ZM113.202 46.484V46.984H113.702V46.484H113.202ZM108.162 47.168L107.808 46.8143L107.799 46.8241L108.162 47.168ZM107.514 62V62.5H108.014V62H107.514ZM104.702 62V48.86H103.702V62H104.702ZM104.702 48.86C104.702 47.3236 105.128 46.1925 105.923 45.3976L105.216 44.6904C104.187 45.7195 103.702 47.1324 103.702 48.86H104.702ZM105.923 45.3976C106.745 44.5762 107.889 44.14 109.422 44.14V43.14C107.69 43.14 106.267 43.6398 105.216 44.6904L105.923 45.3976ZM109.422 44.14H113.202V43.14H109.422V44.14ZM112.702 43.64V46.484H113.702V43.64H112.702ZM113.202 45.984H110.034V46.984H113.202V45.984ZM110.034 45.984C109.141 45.984 108.378 46.2442 107.808 46.8144L108.515 47.5216C108.857 47.1798 109.342 46.984 110.034 46.984V45.984ZM107.799 46.8241C107.255 47.3982 107.014 48.1716 107.014 49.076H108.014C108.014 48.3484 108.204 47.8498 108.525 47.5119L107.799 46.8241ZM107.014 49.076V62H108.014V49.076H107.014ZM107.514 61.5H104.202V62.5H107.514V61.5ZM123.211 69.308H122.711V69.808H123.211V69.308ZM123.211 62.288H123.711V61.8544L123.281 61.793L123.211 62.288ZM119.611 60.956L119.325 61.3662L119.336 61.3735L119.611 60.956ZM117.163 58.184L116.719 58.415L116.721 58.4188L117.163 58.184ZM116.263 43.64V43.14H115.763V43.64H116.263ZM119.611 43.64H120.111V43.14H119.611V43.64ZM120.331 57.104L119.9 57.3575L119.903 57.3632L120.331 57.104ZM122.239 58.94L121.999 59.379L122.005 59.3819L122.239 58.94ZM127.423 58.94L127.189 58.4981L127.183 58.5011L127.423 58.94ZM129.367 57.104L128.941 56.8412L128.939 56.8448L129.367 57.104ZM130.123 43.64V43.14H129.623V43.64H130.123ZM133.435 43.64H133.935V43.14H133.435V43.64ZM132.535 58.148L132.093 57.9132L132.089 57.9206L132.535 58.148ZM130.087 60.92L130.366 61.3345L130.368 61.3331L130.087 60.92ZM126.523 62.288L126.443 61.7943L126.023 61.8619V62.288H126.523ZM126.523 69.308V69.808H127.023V69.308H126.523ZM123.711 69.308V62.288H122.711V69.308H123.711ZM123.281 61.793C122.005 61.6107 120.876 61.191 119.886 60.5385L119.336 61.3735C120.458 62.113 121.728 62.5813 123.14 62.783L123.281 61.793ZM119.897 60.5459C118.931 59.8719 118.168 59.0084 117.604 57.9492L116.721 58.4188C117.358 59.6156 118.227 60.6001 119.325 61.3661L119.897 60.5459ZM117.606 57.953C117.048 56.881 116.763 55.6539 116.763 54.26H115.763C115.763 55.7941 116.078 57.183 116.719 58.415L117.606 57.953ZM116.763 54.26V43.64H115.763V54.26H116.763ZM116.263 44.14H119.611V43.14H116.263V44.14ZM119.111 43.64V54.224H120.111V43.64H119.111ZM119.111 54.224C119.111 55.4022 119.368 56.4527 119.9 57.3575L120.762 56.8505C120.334 56.1233 120.111 55.2538 120.111 54.224H119.111ZM119.903 57.3632C120.428 58.2285 121.128 58.9035 121.999 59.3789L122.478 58.5011C121.766 58.1125 121.194 57.5635 120.758 56.8448L119.903 57.3632ZM122.005 59.3819C122.892 59.8516 123.836 60.088 124.831 60.088V59.088C124.001 59.088 123.218 58.8924 122.473 58.4981L122.005 59.3819ZM124.831 60.088C125.847 60.088 126.794 59.8525 127.662 59.3789L127.183 58.5011C126.468 58.8915 125.686 59.088 124.831 59.088V60.088ZM127.657 59.3819C128.553 58.9075 129.268 58.2322 129.794 57.3632L128.939 56.8448C128.506 57.5598 127.925 58.1085 127.189 58.4981L127.657 59.3819ZM129.792 57.3667C130.352 56.4604 130.623 55.4065 130.623 54.224H129.623C129.623 55.2495 129.39 56.1156 128.941 56.8413L129.792 57.3667ZM130.623 54.224V43.64H129.623V54.224H130.623ZM130.123 44.14H133.435V43.14H130.123V44.14ZM132.935 43.64V54.26H133.935V43.64H132.935ZM132.935 54.26C132.935 55.6542 132.65 56.8674 132.093 57.9132L132.976 58.3828C133.62 57.1726 133.935 55.7938 133.935 54.26H132.935ZM132.089 57.9206C131.552 58.9733 130.793 59.8336 129.805 60.5069L130.368 61.3331C131.493 60.5663 132.366 59.5787 132.98 58.3754L132.089 57.9206ZM129.807 60.5055C128.841 61.1572 127.723 61.5888 126.443 61.7943L126.602 62.7817C128.011 62.5552 129.269 62.0748 130.366 61.3345L129.807 60.5055ZM126.023 62.288V69.308H127.023V62.288H126.023ZM126.523 68.808H123.211V69.808H126.523V68.808Z" fill="#07D39F"/>
</svg>
